<?xml version="1.0" encoding="UTF-8"?>
<svg id="black" xmlns="http://www.w3.org/2000/svg" version="1.1" viewBox="0 0 496.1 81.6">
  <!-- Generator: Adobe Illustrator 29.8.2, SVG Export Plug-In . SVG Version: 2.1.1 Build 3)  -->
  <defs>
    <style>
      .st0 {
        fill: #fff;
      }
    </style>
  </defs>
  <path class="st0" d="M478.9,42.1c2.3,0,4.1,1.8,4.1,4.1s-1.8,4.1-4.1,4.1-4.1-1.8-4.1-4.1,1.8-4.1,4.1-4.1M478.9,40.5c-3.1,0-5.7,2.5-5.7,5.7s2.5,5.7,5.7,5.7,5.7-2.5,5.7-5.7-2.5-5.7-5.7-5.7h0Z"/>
  <path class="st0" d="M490.3,48.9c-1,4.4-4.5,7.8-8.9,8.7-.4,1.1-1.4,1.8-2.6,1.8s-2.2-.8-2.6-1.9c-3.7-.9-6.7-3.5-8.1-6.9h-14.2v-1.7h15.5c.9,3.3,3.5,5.9,6.8,6.8.4-1.1,1.4-1.9,2.7-1.9s2.3.8,2.7,2c3.4-.9,6.1-3.5,7-6.9h1.8M478.8,57.7c.6,0,1.1-.5,1.1-1.1s0-.4-.2-.5c-.2-.3-.5-.5-.9-.5s-.7.2-.9.5c0,.2-.2.3-.2.5,0,.6.5,1.1,1.1,1.1M492.3,47.3h-5l-.3,1.2c-.7,2.5-2.4,4.4-4.7,5.4-.8-1-2.1-1.6-3.4-1.6s-2.5.6-3.4,1.6c-2.2-1-3.9-2.9-4.6-5.3l-.3-1.2h-18.3v4.9h14.8c1.6,3.2,4.5,5.6,8,6.7.8,1.3,2.2,2.1,3.7,2.1s2.9-.8,3.7-2c4.6-1.3,8.3-5,9.4-9.7l.5-2h0Z"/>
  <path class="st0" d="M17.7,42.2c2.2,0,4.1,1.8,4.1,4.1s-1.8,4.1-4.1,4.1-4.1-1.8-4.1-4.1,1.8-4.1,4.1-4.1M17.7,40.6c-3.1,0-5.7,2.5-5.7,5.7s2.5,5.7,5.7,5.7,5.7-2.5,5.7-5.7-2.5-5.7-5.7-5.7h0Z"/>
  <path class="st0" d="M17.7,34.6c4.9,0,9,3,10.8,7.3h13.4v1.7h-14.6c-1.2-4.1-5-7.3-9.6-7.3s-8.4,3.1-9.6,7.3h-1.8c1.3-5.1,5.9-9,11.4-9h0M17.7,33c-6.1,0-11.5,4.3-13,10.2l-.5,2h5l.3-1.1c1.1-3.6,4.4-6.1,8.1-6.1s7,2.5,8,6.1l.3,1.1h17.4v-4.9h-13.9c-2.3-4.5-6.8-7.3-11.8-7.3h0Z"/>
  <path class="st0" d="M8.1,49c.9,3.4,3.6,6,7,6.9.4-1.1,1.4-2,2.7-2h0c1.2,0,2.3.8,2.7,1.9,3.3-1,5.9-3.5,6.8-6.8h14.6v1.7h-13.3c-1.4,3.4-4.4,6-8.1,6.9-.4,1.1-1.4,1.9-2.6,1.9s-2.2-.8-2.6-1.8c-4.4-1-7.9-4.3-8.9-8.7h1.8M17.8,57.8c.6,0,1.1-.5,1.1-1.1s0-.4-.2-.5c-.2-.3-.5-.5-.9-.5s-.7.2-.9.5c0,.2-.2.3-.2.5,0,.6.5,1.1,1.1,1.1M9.3,47.4h-5l.5,2c1.1,4.7,4.7,8.4,9.4,9.7.8,1.3,2.2,2,3.7,2s3-.8,3.7-2.1c3.5-1.1,6.4-3.5,8-6.7h13.9v-4.9h-17.4l-.3,1.2c-.7,2.4-2.3,4.3-4.6,5.3-.8-1-2-1.6-3.4-1.6-1.4,0-2.6.6-3.4,1.6-2.3-1-4-2.9-4.7-5.4l-.3-1.2h0Z"/>
  <path class="st0" d="M204.7,48.9c-1.3,10-9.9,17.8-20.3,17.8s-8.9-1.6-12.4-4.2c-.5.4-1.1.7-1.8.7-1.5,0-2.8-1.3-2.8-2.8s.3-1.3.7-1.8c-2.1-2.8-3.5-6.1-4-9.7h2c.5,3.3,1.8,6.2,3.7,8.7.1,0,.2,0,.4,0,1.6,0,2.8,1.3,2.8,2.8s0,.2,0,.4c3.1,2.5,7.1,4,11.4,4,9.3,0,17-6.9,18.3-15.8h2M170.3,61.5c.2,0,.3,0,.4-.1.3-.1.5-.4.6-.6,0,0,0-.2,0-.3,0-.6-.5-1.1-1.1-1.1s-.8.3-.9.6c0,.1,0,.3-.1.4,0,.6.5,1.1,1,1.1M206.5,47.4h-5.2l-.2,1.4c-1.2,8.2-8.4,14.5-16.7,14.5s-6.9-1.1-9.8-3.2c-.2-2.1-1.9-3.7-3.9-4-1.5-2.2-2.5-4.7-2.9-7.3l-.2-1.4h-5.2l.2,1.8c.5,3.4,1.7,6.7,3.6,9.5-.2.6-.4,1.2-.4,1.8,0,2.4,2,4.4,4.4,4.4s1.2-.1,1.8-.4c3.7,2.5,8,3.9,12.4,3.9,11,0,20.4-8.2,21.8-19.2l.2-1.8h0Z"/>
  <path class="st0" d="M212.7,48.9c-1.3,13.6-12.2,24.4-25.8,25.6-.3,1.2-1.5,2.1-2.8,2.1s-2.5-.9-2.8-2.2c-13.3-1.5-23.9-12.2-25.1-25.5h1.7c1.3,12.5,11.1,22.4,23.5,23.8.4-1.1,1.5-1.9,2.7-1.9s2.3.8,2.7,2c12.7-1.1,22.8-11.2,24.1-23.9h1.7M184.2,75.1c.5,0,.9-.3,1.1-.7,0-.1,0-.3,0-.5,0-.7-.5-1.2-1.2-1.2s-1.2.5-1.2,1.2,0,.3,0,.5c.2.4.6.7,1.1.7M214.4,47.4h-4.9v1.4c-1.3,11.6-10.4,20.8-21.8,22.4-.8-1.1-2.2-1.9-3.6-1.9s-2.7.7-3.6,1.8c-11.1-1.7-19.9-10.9-21.1-22.3v-1.4h-5l.2,1.7c1.3,13.8,12,24.9,25.6,26.8.8,1.4,2.3,2.3,3.9,2.3s3.1-.9,3.9-2.2c13.9-1.7,24.9-12.8,26.3-26.9l.2-1.7h0Z"/>
  <path class="st0" d="M181.8,25.6v2c-8.2,1.2-14.6,7.7-15.7,15.9h-2c1.1-9.3,8.4-16.7,17.7-17.9M183.4,23.8l-1.8.2c-10,1.3-17.9,9.2-19,19.3l-.2,1.8h5.2l.2-1.4c1-7.5,6.9-13.4,14.3-14.5l1.4-.2v-5.2h0Z"/>
  <path class="st0" d="M187.3,25.6c3.5.5,6.8,1.9,9.5,4,.5-.4,1.1-.7,1.8-.7,1.5,0,2.8,1.3,2.8,2.8s-.3,1.3-.7,1.8c2.1,2.8,3.6,6.2,4,9.9h-2c-.4-3.4-1.8-6.4-3.8-9-.1,0-.2,0-.4,0-1.6,0-2.8-1.3-2.8-2.8s0-.2,0-.4c-2.4-1.9-5.4-3.2-8.6-3.7v-2M198.7,32.8c.4,0,.8-.3.9-.6,0-.1.1-.3.1-.4,0-.6-.5-1.1-1-1.1s-.3,0-.4.1c-.3.1-.5.4-.6.6,0,0,0,.2,0,.3,0,.6.5,1.1,1.1,1.1M185.7,23.8v5.2l1.3.2c2.6.4,5.1,1.4,7.2,2.9.2,2.1,1.9,3.7,3.9,3.9,1.6,2.2,2.6,4.8,3,7.6l.2,1.4h5.2l-.2-1.8c-.4-3.5-1.7-6.9-3.7-9.8.2-.6.4-1.2.4-1.8,0-2.4-2-4.4-4.4-4.4s-1.2.1-1.8.4c-2.8-1.9-6-3.2-9.4-3.6l-1.8-.3h0Z"/>
  <path class="st0" d="M478.9,34.5c5.5,0,10.2,3.9,11.4,9h-1.8c-1.2-4.1-5.1-7.3-9.6-7.3s-8.4,3.1-9.6,7.3h-15.5v-1.7h14.3c1.8-4.2,5.9-7.3,10.8-7.3M478.9,32.9c-5,0-9.5,2.8-11.8,7.3h-14.9v4.9h18.3l.3-1.1c1.1-3.6,4.4-6.1,8-6.1s7,2.5,8.1,6.1l.3,1.1h5l-.5-2c-1.5-5.9-6.9-10.2-13-10.2h0Z"/>
  <path class="st0" d="M187.3,17.9c13.4,1.4,24.1,12.1,25.4,25.5h-1.7c-1.3-12.5-11.2-22.5-23.7-23.8v-1.7M185.7,16.2v4.9l1.4.2c11.7,1.3,21.1,10.7,22.3,22.4v1.4h5l-.2-1.7c-1.4-14.2-12.6-25.5-26.8-27l-1.7-.2h0Z"/>
  <path class="st0" d="M181.8,17.9v1.7c-12.6,1.2-22.7,11.2-24,23.8h-1.7c1.3-13.5,12.1-24.3,25.7-25.6M183.4,16.2l-1.7.2c-14.3,1.3-25.7,12.6-27.1,27l-.2,1.7h4.9v-1.4c1.4-11.8,10.8-21.3,22.7-22.4h1.4v-5h0Z"/>
  <path class="st0" d="M178.8,36.4c2.3,0,4.1,1.8,4.1,4.1s-1.8,4.1-4.1,4.1-4.1-1.8-4.1-4.1,1.8-4.1,4.1-4.1M178.8,34.8c-3.1,0-5.7,2.5-5.7,5.7s2.5,5.7,5.7,5.7,5.7-2.5,5.7-5.7-2.5-5.7-5.7-5.7h0Z"/>
  <path class="st0" d="M190.5,47.9c2.3,0,4.1,1.8,4.1,4.1s-1.8,4.1-4.1,4.1-4.1-1.8-4.1-4.1,1.8-4.1,4.1-4.1M190.5,46.3c-3.1,0-5.7,2.5-5.7,5.7s2.5,5.7,5.7,5.7,5.7-2.5,5.7-5.7-2.5-5.7-5.7-5.7h0Z"/>
  <path class="st0" d="M416.5,25.9c4.6,0,8.9,1.6,12.4,4.2.5-.4,1.1-.7,1.8-.7,1.5,0,2.8,1.3,2.8,2.8s-.3,1.3-.7,1.8c2.1,2.7,3.4,5.9,3.9,9.5h-2c-.5-3.2-1.8-6.1-3.7-8.5-.1,0-.2,0-.3,0-1.5,0-2.8-1.3-2.8-2.8s0-.2,0-.4c-3.1-2.5-7.1-4-11.4-4-9.2,0-16.8,6.8-18.2,15.6h-2c1.4-9.9,9.9-17.6,20.2-17.6M430.7,33.3c.4,0,.8-.3.9-.6,0-.1.1-.3.1-.4,0-.6-.5-1.1-1-1.1s-.3,0-.4.1c-.4.2-.6.5-.6,1s.5,1.1,1.1,1.1M416.5,24.3c-10.9,0-20.3,8.1-21.8,18.9l-.3,1.8h5.2l.2-1.3c1.3-8.3,8.3-14.3,16.7-14.3s6.9,1.1,9.8,3.2c.2,2.1,1.9,3.7,3.9,3.9,1.5,2.1,2.5,4.6,2.9,7.2l.2,1.3h5.2l-.3-1.8c-.5-3.3-1.7-6.5-3.6-9.3.2-.6.4-1.2.4-1.8,0-2.4-2-4.4-4.4-4.4s-1.2.1-1.8.4c-3.7-2.5-8-3.9-12.4-3.9h0Z"/>
  <path class="st0" d="M436.8,49c-1,9.4-8.4,16.9-17.8,18.1v-2c8.3-1.1,14.8-7.8,15.8-16.1h2M438.6,47.4h-5.2l-.2,1.4c-.9,7.6-6.8,13.7-14.4,14.7l-1.4.2v5.2l1.8-.2c10.2-1.3,18.1-9.3,19.2-19.5l.2-1.8h0Z"/>
  <path class="st0" d="M398.2,49c.4,3.4,1.7,6.6,3.8,9.2.1,0,.2,0,.4,0,1.5,0,2.8,1.3,2.8,2.8s0,.2,0,.4c2.4,1.9,5.3,3.2,8.5,3.7v2c-3.5-.5-6.7-1.9-9.4-4-.5.4-1.1.7-1.8.7-1.5,0-2.8-1.3-2.8-2.8s.3-1.3.7-1.8c-2.2-2.9-3.6-6.4-4-10.1h2M402.3,62c.2,0,.3,0,.4-.1.4-.2.6-.5.6-1s-.5-1.1-1.1-1.1-.8.3-.9.6c0,.1,0,.3-.1.4,0,.6.5,1.1,1.1,1.1M399.6,47.4h-5.2l.2,1.8c.4,3.6,1.7,7.1,3.7,10-.2.6-.4,1.2-.4,1.8,0,2.4,2,4.4,4.4,4.4s1.2-.1,1.8-.4c2.8,1.9,6,3.1,9.3,3.6l1.8.3v-5.2l-1.3-.2c-2.6-.4-5-1.4-7.1-2.9-.2-2.1-1.9-3.7-3.9-3.9-1.6-2.3-2.7-5-3-7.8l-.2-1.4h0Z"/>
  <path class="st0" d="M390.4,49c1.2,12.4,10.9,22.4,23.2,24v1.7c-13.3-1.6-23.7-12.3-24.9-25.7h1.7M391.8,47.4h-4.9l.2,1.7c1.2,14.1,12.3,25.5,26.3,27.1l1.8.2v-4.9l-1.4-.2c-11.6-1.5-20.7-10.9-21.8-22.5v-1.4h-.1Z"/>
  <path class="st0" d="M445.3,48.9c-1.6,13.5-12.6,24.4-26.2,25.6v-1.7c12.6-1.2,22.9-11.4,24.5-23.9h1.8M447,47.3h-4.9l-.2,1.4c-1.5,11.9-11.2,21.4-23,22.5h-1.4v5.1l1.7-.2c14.3-1.3,25.9-12.6,27.6-27l.2-1.8h0Z"/>
  <path class="st0" d="M416.4,16c1.3,0,2.4.9,2.8,2.1,13.6,1.1,24.6,11.8,26,25.4h-1.7c-1.4-12.6-11.6-22.6-24.3-23.7-.4,1.2-1.5,2-2.7,2s-2.3-.8-2.7-1.9c-12.3,1.5-22,11.3-23.3,23.6h-1.7c1.4-13.2,11.8-23.8,24.9-25.3.3-1.3,1.4-2.2,2.8-2.2M416.3,20.1c.7,0,1.2-.5,1.2-1.2s-.5-1.2-1.2-1.2-1.2.5-1.2,1.2.5,1.2,1.2,1.2M416.4,14.4c-1.7,0-3.1.9-3.9,2.3-13.4,2-24,13-25.4,26.6l-.2,1.8h4.9l.2-1.4c1.2-11.1,9.9-20.2,20.9-22,.8,1.1,2.1,1.8,3.6,1.8s2.8-.7,3.7-1.9c11.4,1.4,20.5,10.6,21.8,22.2l.2,1.4h4.9l-.2-1.8c-1.5-14.1-12.5-25.2-26.5-26.7-.8-1.3-2.2-2.2-3.8-2.2h0Z"/>
  <path class="st0" d="M422.3,36.3c2.2,0,4.1,1.8,4.1,4.1s-1.8,4.1-4.1,4.1-4.1-1.8-4.1-4.1,1.8-4.1,4.1-4.1M422.3,34.7c-3.1,0-5.7,2.5-5.7,5.7s2.5,5.7,5.7,5.7,5.7-2.5,5.7-5.7-2.5-5.7-5.7-5.7h0Z"/>
  <path class="st0" d="M410.8,48c2.2,0,4.1,1.8,4.1,4.1s-1.8,4.1-4.1,4.1-4.1-1.8-4.1-4.1,1.8-4.1,4.1-4.1M410.8,46.4c-3.1,0-5.7,2.5-5.7,5.7s2.5,5.7,5.7,5.7,5.7-2.5,5.7-5.7-2.5-5.7-5.7-5.7h0Z"/>
  <path class="st0" d="M230.7,48.9v13.2c1.2.3,2.1,1.4,2.1,2.8s-.9,2.4-2.1,2.8v4.5c0,1.2-.4,2.4-1.3,3.2-.8.8-1.9,1.3-3.2,1.3s-2.3-.4-3.2-1.2c-1.1-.9-1.6-2-1.6-3.3v-23.3h1.8v23.3c0,.8.3,1.4,1,2,.7.5,1.4.8,2.2.8s1.4-.3,2-.8c.5-.5.8-1.2.8-2v-4.6c-1.1-.4-1.9-1.5-1.9-2.7s.8-2.3,1.9-2.7v-13.3h1.8M229.9,66c.3,0,.6-.1.9-.4.2-.2.4-.5.4-.9,0-.7-.5-1.2-1.2-1.2s-.6.1-.9.4-.4.5-.4.9c0,.7.5,1.2,1.2,1.2M232.3,47.4h-4.9v13.9c-1.2.8-1.9,2.2-1.9,3.7s.7,2.8,1.9,3.7v3.6c0,.5-.1.7-.3.8-.2.2-.4.3-.8.3s-.8-.1-1.2-.4c-.3-.3-.4-.5-.4-.7v-24.9h-4.9v24.9c0,1.8.8,3.4,2.2,4.6,1.2,1,2.7,1.5,4.2,1.5s3.2-.6,4.3-1.8c1.1-1.1,1.8-2.6,1.8-4.3v-3.5c1.3-.8,2.1-2.2,2.1-3.8s-.8-3-2.1-3.8v-13.8h0Z"/>
  <path class="st0" d="M225.9,6.9c1.2,0,2.3.4,3.2,1.2,1.1.9,1.6,2,1.6,3.3v32.1h-1.8V11.3c0-.8-.3-1.4-1-2-.7-.5-1.4-.8-2.2-.8s-1.4.3-2,.8c-.5.5-.8,1.2-.8,2v4.4c1.1.4,1.9,1.5,1.9,2.7s-.8,2.3-1.9,2.7v22.3h-1.8v-22.2c-1.2-.3-2.1-1.4-2.1-2.8s.9-2.4,2.1-2.8v-4.3c0-1.2.4-2.4,1.3-3.2.8-.8,1.9-1.3,3.2-1.3M222.2,19.9c.7,0,1.2-.5,1.2-1.2s-.5-1.2-1.2-1.2-1.2.5-1.2,1.2.5,1.2,1.2,1.2M225.9,5.3c-1.7,0-3.2.6-4.3,1.8-1.1,1.1-1.8,2.6-1.8,4.3v3.3c-1.3.8-2.1,2.2-2.1,3.8s.8,3,2.1,3.8v22.8h4.9v-22.9c1.2-.8,1.9-2.2,1.9-3.7s-.7-2.8-1.9-3.7v-3.5c0-.5.1-.7.3-.8.2-.2.4-.3.8-.3s.8.1,1.2.4c.3.3.4.5.4.7v33.7h4.9V11.3c0-1.8-.8-3.4-2.2-4.6-1.2-1-2.7-1.5-4.2-1.5h0Z"/>
  <path class="st0" d="M242.3,50.6c0-2.3,1.8-4.1,4.1-4.1s4.1,1.8,4.1,4.1-1.8,4.1-4.1,4.1-4.1-1.8-4.1-4.1M240.7,50.6c0,3.1,2.5,5.7,5.7,5.7s5.7-2.5,5.7-5.7-2.5-5.7-5.7-5.7-5.7,2.5-5.7,5.7h0Z"/>
  <path class="st0" d="M235.9,29.4c0-1.2.4-2.3,1.2-3.1.8-.8,1.9-1.3,3.1-1.3h7.7c12.9,0,23.5,9.7,24.8,22.2,0,.2,0,.4,0,.6h-1.8c0,0,0-.2,0-.3,0,0,0,0,0,0,0,0,0-.2,0-.3,0,0,0-.2,0-.2,0,0,0-.1,0-.2-1.6-11.3-11.2-20-23-20h0s-7.7,0-7.7,0c-.7,0-1.4.3-1.8.7-.5.5-.7,1.1-.7,1.9s.2,1.4.7,2c.5.6,1.1.9,1.8.9h7.7c8.9,0,16.6,6.2,17.6,15.4h-1.8c-1.2-7.8-7.8-13.6-15.8-13.6h-1.8s-5.9,0-5.9,0c-1.3,0-2.4-.5-3.2-1.6-.7-.9-1.1-2-1.1-3.1M234.3,29.4c0,1.5.5,2.9,1.4,4.1,1.1,1.4,2.7,2.2,4.5,2.2h7.6c7.2,0,13.2,5.2,14.2,12.3l.2,1.4h4.9l-.2-1.8c-1-9.8-9.1-16.9-19.2-16.9h-7.7c-.2,0-.4,0-.6-.3-.3-.3-.4-.7-.4-1.1s.1-.6.3-.7c.1-.1.3-.3.7-.3h8.1c10.6.2,19.6,8.1,21,18.6h0c0,0,0,.1,0,.1h0c0,0,0,.6,0,.6v.2s0,.1,0,.1l.2,1.4h4.9v-1.7c-.1,0-.2-.6-.2-.6-1.5-13.5-12.9-23.6-26.4-23.6h-1.8s-5.9,0-5.9,0c-1.6,0-3.1.6-4.2,1.7-1.1,1.1-1.7,2.6-1.7,4.2h0Z"/>
  <path class="st0" d="M235.9,72.2c0-1.1.4-2.2,1.1-3.1.8-1,1.9-1.6,3.2-1.6h7.7c8.2,0,14.9-6.2,15.8-14.3h1.8c-.7,9.5-8.5,16-17.6,16h-7.7c-.7,0-1.4.3-1.8.9-.5.6-.7,1.3-.7,2s.2,1.4.7,1.9c.5.5,1.1.7,1.8.7h7.7s0,0,0,0c11.7,0,21.4-8.7,23-20,0,0,0-.1,0-.2,0,0,0-.2,0-.2,0,0,0-.2,0-.3,0,0,0,0,0,0,0-.3,0-.6.1-.9h1.7c0,.3,0,.7-.1,1.2-1.4,12.5-12,22.2-24.8,22.2h-1.8s-5.9,0-5.9,0c-1.2,0-2.3-.4-3.1-1.3-.8-.8-1.2-1.9-1.2-3.1M234.3,72.2c0,1.6.6,3.1,1.7,4.2,1.1,1.1,2.6,1.7,4.2,1.7h7.7c13.6,0,24.9-10.2,26.4-23.6,0-.5,0-.9.1-1.2v-1.7c.1,0-1.6,0-1.6,0h-3.2l-.2,1.4c0,.3,0,.6,0,.9v.3s0,0,0,0h0s0,.2,0,.2h0c0,0,0,.1,0,.1h0c-1.5,10.6-10.5,18.5-21.1,18.7h-.4s-7.7,0-7.7,0c-.4,0-.6-.1-.7-.3-.1-.1-.3-.3-.3-.7s.1-.7.4-1.1c.2-.3.4-.3.6-.3h7.7c10.2,0,18.5-7.5,19.2-17.5v-1.7c.1,0-1.6,0-1.6,0h-3.2l-.2,1.4c-.8,7.3-7,12.8-14.3,12.8h-1.8s-5.9,0-5.9,0c-1.8,0-3.3.8-4.5,2.2-1,1.2-1.5,2.6-1.5,4.1h0Z"/>
  <path class="st0" d="M146.1,38.6c0,1.2-.5,2.4-1.5,3.4-1,1-2.2,1.5-3.4,1.5h-8.4c-1.3,0-2.5-.6-3.3-1.6-.8-1-1.2-2.1-1.2-3.2s.5-2.4,1.3-3.2c.8-.8,1.9-1.3,3.2-1.3h8.4c1.2,0,2.3.4,3.2,1.2,1.1.9,1.6,2,1.6,3.3M130.1,38.6c0,.8.3,1.5.8,2.1.5.7,1.2,1,2,1h8.4c.8,0,1.5-.3,2.2-1,.6-.7,1-1.4,1-2.1s-.3-1.4-1-2c-.6-.5-1.4-.8-2.2-.8h-8.4c-.8,0-1.4.3-2,.8-.5.5-.8,1.2-.8,2M147.7,38.6c0-1.8-.8-3.4-2.2-4.6-1.3-1-2.7-1.5-4.2-1.5h-8.4c-1.7,0-3.2.6-4.3,1.8-1.2,1.1-1.8,2.6-1.8,4.3s.5,3,1.5,4.2c1.1,1.4,2.8,2.2,4.6,2.2h8.4c1.7,0,3.2-.7,4.5-2,1.3-1.3,2-2.8,2-4.5h0ZM131.7,38.6c0-.5.2-.7.3-.8.2-.2.5-.3.8-.3h8.4c.4,0,.8.1,1.2.4.3.3.4.5.4.7s0,.6-.5,1c-.5.5-.8.5-1,.5h-8.4c-.2,0-.5,0-.7-.4-.3-.4-.4-.7-.4-1.2h0Z"/>
  <path class="st0" d="M122.9,48.9v13.2c1.2.3,2.1,1.4,2.1,2.8s-.9,2.4-2.1,2.8v4.5c0,1.2-.4,2.4-1.3,3.2-.8.8-1.9,1.3-3.2,1.3s-2.3-.4-3.2-1.2c-1.1-.9-1.6-2-1.6-3.3v-23.3h1.8v23.3c0,.8.3,1.4,1,2,.7.5,1.4.8,2.2.8s1.4-.3,2-.8c.5-.5.8-1.2.8-2v-4.6c-1.1-.4-1.9-1.5-1.9-2.7s.8-2.3,1.9-2.7v-13.3h1.8M122.1,66c.5,0,.9-.3,1.1-.7,0-.1,0-.3,0-.5,0-.7-.5-1.2-1.2-1.2s-1.2.5-1.2,1.2,0,.3,0,.5c.2.4.6.7,1.1.7M124.5,47.4h-4.9v13.9c-1.2.8-1.9,2.2-1.9,3.7s.7,2.8,1.9,3.7v3.6c0,.5-.1.7-.3.8-.2.2-.4.3-.8.3s-.8-.1-1.2-.4c-.3-.3-.4-.5-.4-.7v-24.9h-4.9v24.9c0,1.8.8,3.4,2.2,4.6,1.2,1,2.7,1.5,4.2,1.5s3.2-.6,4.3-1.8c1.1-1.1,1.8-2.6,1.8-4.3v-3.5c1.3-.8,2.1-2.2,2.1-3.8s-.8-3-2.1-3.8v-13.8h0Z"/>
  <path class="st0" d="M122.9,6.8v1.8h-4.5c-.8,0-1.5.3-2.2.8-.6.5-1,1.2-1,2v32.2h-1.8V11.3c0-1.3.6-2.5,1.6-3.3,1-.8,2.1-1.2,3.2-1.2h4.5M124.5,5.2h-6.1c-1.6,0-3,.5-4.2,1.5-1.4,1.1-2.2,2.8-2.2,4.6v33.8h4.9V11.3c0-.3,0-.5.4-.7.4-.3.7-.4,1.2-.4h6.1v-4.9h0Z"/>
  <path class="st0" d="M122.9,14.4v1.8h0v27.3h-1.8V14.4h1.8M124.5,12.8h-4.9v32.3h4.9v-28.9s0-1.8,0-1.8v-1.6h0Z"/>
  <path class="st0" d="M134.8,4.9c1.2,0,2.2.8,2.6,1.8h9.9c1.2,0,2.3.4,3.2,1.2,1.1.9,1.6,2,1.6,3.3s-.5,2.4-1.5,3.4c-1,1-2.2,1.5-3.4,1.5h-19v-1.8h19c.8,0,1.5-.3,2.2-1,.6-.6,1-1.4,1-2.1s-.3-1.4-1-2c-.7-.5-1.4-.8-2.2-.8h-9.8c-.3,1.2-1.4,2-2.7,2-1.3,0-2.3-.9-2.7-2h-3.8v-1.8h3.8c.4-1.1,1.4-1.8,2.6-1.8M134.8,8.8c.3,0,.5-.1.7-.3.2-.2.4-.5.4-.8,0-.4-.3-.8-.7-1-.1,0-.3,0-.4,0s-.3,0-.4,0c-.4.2-.7.5-.7,1s.1.6.4.8c.2.2.4.3.7.3M134.8,3.4c-1.4,0-2.7.7-3.6,1.8h-4.5v4.9h4.4c.8,1.2,2.2,2,3.7,2,1.5,0,2.9-.8,3.7-2h8.8c.4,0,.8.1,1.2.4.3.2.4.5.4.7s0,.6-.5,1c-.5.5-.8.5-1,.5h-20.6v4.9h20.6c1.7,0,3.2-.7,4.5-1.9,1.3-1.3,2-2.8,2-4.5s-.8-3.4-2.2-4.6c-1.3-1-2.7-1.5-4.2-1.5h-9c-.8-1.1-2.1-1.8-3.6-1.8h0Z"/>
  <path class="st0" d="M377.2,38.6c0,1.2-.5,2.4-1.5,3.4-1,1-2.2,1.5-3.4,1.5h-8.4c-1.3,0-2.5-.6-3.3-1.6-.8-1-1.2-2.1-1.2-3.2s.5-2.4,1.3-3.2c.8-.8,1.9-1.3,3.2-1.3h8.4c1.2,0,2.3.4,3.2,1.2,1.1.9,1.6,2,1.6,3.3M361.2,38.6c0,.8.3,1.5.8,2.1.5.7,1.2,1,2,1h8.4c.8,0,1.5-.3,2.2-1,.6-.7,1-1.4,1-2.1s-.3-1.4-1-2c-.6-.5-1.4-.8-2.2-.8h-8.4c-.8,0-1.4.3-2,.8-.5.5-.8,1.2-.8,2M378.8,38.6c0-1.8-.8-3.4-2.2-4.6-1.3-1-2.7-1.5-4.2-1.5h-8.4c-1.7,0-3.2.6-4.3,1.8-1.2,1.1-1.8,2.6-1.8,4.3s.5,3,1.5,4.2c1.1,1.4,2.8,2.2,4.6,2.2h8.4c1.7,0,3.2-.7,4.5-2,1.3-1.3,2-2.8,2-4.5h0ZM362.8,38.6c0-.5.2-.7.3-.8.2-.2.5-.3.8-.3h8.4c.4,0,.8.1,1.2.4.3.3.4.5.4.7s0,.6-.5,1c-.5.5-.8.5-1,.5h-8.4c-.2,0-.5,0-.7-.4-.3-.4-.4-.7-.4-1.2h0Z"/>
  <path class="st0" d="M354,48.9v13.2c1.2.3,2.1,1.4,2.1,2.8s-.9,2.4-2.1,2.8v4.5c0,1.2-.4,2.4-1.3,3.2-.8.8-1.9,1.3-3.2,1.3s-2.3-.4-3.2-1.2c-1.1-.9-1.6-2-1.6-3.3v-23.3h1.8v23.3c0,.8.3,1.4,1,2,.7.5,1.4.8,2.2.8s1.4-.3,2-.8c.5-.5.8-1.2.8-2v-4.6c-1.1-.4-1.9-1.5-1.9-2.7s.8-2.3,1.9-2.7v-13.3h1.8M353.2,66c.5,0,.9-.3,1.1-.7,0-.1,0-.3,0-.5,0-.7-.5-1.2-1.2-1.2s-1.2.5-1.2,1.2,0,.3,0,.5c.2.4.6.7,1.1.7M355.6,47.4h-4.9v13.9c-1.2.8-1.9,2.2-1.9,3.7s.7,2.8,1.9,3.7v3.6c0,.5-.1.7-.3.8-.2.2-.4.3-.8.3s-.8-.1-1.2-.4c-.3-.3-.4-.5-.4-.7v-24.9h-4.9v24.9c0,1.8.8,3.4,2.2,4.6,1.2,1,2.7,1.5,4.2,1.5s3.2-.6,4.3-1.8c1.1-1.1,1.8-2.6,1.8-4.3v-3.5c1.3-.8,2.1-2.2,2.1-3.8s-.8-3-2.1-3.8v-13.8h0Z"/>
  <path class="st0" d="M354,6.8v1.8h-4.5c-.8,0-1.5.3-2.2.8-.6.5-1,1.2-1,2v32.2h-1.8V11.3c0-1.3.6-2.5,1.6-3.3,1-.8,2.1-1.2,3.2-1.2h4.5M355.6,5.2h-6.1c-1.6,0-3,.5-4.2,1.5-1.4,1.1-2.2,2.8-2.2,4.6v33.8h4.9V11.3c0-.3,0-.5.4-.7.4-.3.7-.4,1.2-.4h6.1v-4.9h0Z"/>
  <path class="st0" d="M354,14.4v1.8h0v27.3h-1.8V14.4h1.8M355.6,12.8h-4.9v32.3h4.9v-28.9s0-1.8,0-1.8v-1.6h0Z"/>
  <path class="st0" d="M365.9,4.9c1.2,0,2.2.8,2.6,1.8h9.9c1.2,0,2.3.4,3.2,1.2,1.1.9,1.6,2,1.6,3.3s-.5,2.4-1.5,3.4c-1,1-2.2,1.5-3.4,1.5h-19v-1.8h19c.8,0,1.5-.3,2.2-1,.6-.6,1-1.4,1-2.1s-.3-1.4-1-2c-.7-.5-1.4-.8-2.2-.8h-9.8c-.3,1.2-1.4,2-2.7,2-1.3,0-2.3-.9-2.7-2h-3.8v-1.8h3.8c.4-1.1,1.4-1.8,2.6-1.8M365.9,8.8c.3,0,.5-.1.7-.3.2-.2.4-.5.4-.8,0-.4-.3-.8-.7-1-.1,0-.3,0-.4,0s-.3,0-.4,0c-.4.2-.7.5-.7,1s.1.6.4.8c.2.2.4.3.7.3M365.9,3.4c-1.4,0-2.7.7-3.6,1.8h-4.5v4.9h4.4c.8,1.2,2.2,2,3.7,2,1.5,0,2.9-.8,3.7-2h8.8c.4,0,.8.1,1.2.4.3.2.4.5.4.7s0,.6-.5,1c-.5.5-.8.5-1,.5h-20.6v4.9h20.6c1.7,0,3.2-.7,4.5-1.9,1.3-1.3,2-2.8,2-4.5s-.8-3.4-2.2-4.6c-1.3-1-2.7-1.5-4.2-1.5h-9c-.8-1.1-2.1-1.8-3.6-1.8h0Z"/>
  <path class="st0" d="M308.9,46c2.3,0,4.1,1.8,4.1,4.1s-1.8,4.1-4.1,4.1-4.1-1.8-4.1-4.1,1.8-4.1,4.1-4.1M308.9,44.4c-3.1,0-5.7,2.5-5.7,5.7s2.5,5.7,5.7,5.7,5.7-2.5,5.7-5.7-2.5-5.7-5.7-5.7h0Z"/>
  <path class="st0" d="M330.1,24.3c1.2,0,2.3.4,3.1,1.2.8.8,1.3,1.9,1.3,3.1v23c0,12.9-9.7,23.5-22.2,24.8-.2,0-.4,0-.6,0v-1.8c0,0,.2,0,.3,0,0,0,0,0,0,0,0,0,.2,0,.3,0,0,0,.2,0,.2,0,0,0,.1,0,.2,0,11.3-1.6,20-11.2,20-23h0s0,0,0,0v-23c0-.7-.3-1.4-.7-1.8-.5-.5-1.1-.7-1.9-.7s-1.4.2-2,.7c-.6.5-.9,1.1-.9,1.8v23c0,8.9-6.2,16.6-15.4,17.6v-1.8c7.8-1.2,13.6-7.8,13.6-15.8v-1.8s0-21.2,0-21.2c0-1.3.5-2.4,1.6-3.2.9-.7,2-1.1,3.1-1.1M330.1,22.7c-1.5,0-2.9.5-4.1,1.4-1.4,1.1-2.2,2.7-2.2,4.5v22.9c0,7.2-5.2,13.2-12.3,14.2l-1.4.2v4.9l1.8-.2c9.8-1,16.9-9.1,16.9-19.2v-23c0-.2,0-.4.3-.6.3-.3.7-.4,1.1-.4s.6.1.7.3c.1.1.3.3.3.7v23.4c-.2,10.6-8.1,19.6-18.6,21h0s0,0,0,0h0s-.5,0-.5,0h-.2s-.1,0-.1,0l-1.4.2v4.9h1.7c0-.1.6-.2.6-.2,13.5-1.5,23.6-12.9,23.6-26.4v-1.8s0-21.2,0-21.2c0-1.6-.6-3.1-1.7-4.2-1.1-1.1-2.6-1.7-4.2-1.7h0Z"/>
  <path class="st0" d="M287.2,24.3c1.1,0,2.2.4,3.1,1.1,1,.8,1.6,1.9,1.6,3.2v23c0,8.2,6.2,14.9,14.3,15.8v1.8c-9.5-.7-16-8.5-16-17.6v-23c0-.7-.3-1.4-.9-1.8-.6-.5-1.3-.7-2-.7s-1.4.2-1.9.7c-.5.5-.7,1.1-.7,1.8v23h0c0,11.8,8.7,21.4,20,23,0,0,.1,0,.2,0,0,0,.2,0,.2,0,0,0,.2,0,.3,0,0,0,0,0,0,0,.3,0,.6,0,.9.1v1.7c-.3,0-.7,0-1.2-.1-12.5-1.4-22.2-12-22.2-24.8v-1.8s0-21.2,0-21.2c0-1.2.4-2.3,1.3-3.1.8-.8,1.9-1.2,3.1-1.2M287.2,22.7c-1.6,0-3.1.6-4.2,1.7-1.1,1.1-1.7,2.6-1.7,4.2v23c0,13.6,10.2,24.9,23.6,26.4.5,0,.9,0,1.2.1h1.7c0,.1,0-1.6,0-1.6v-3.2l-1.4-.2c-.3,0-.6,0-.9,0h-.3s0,0,0,0h0s-.2,0-.2,0h0s0,0,0,0h0c-10.5-1.5-18.5-10.5-18.6-21.1v-.4s0-23,0-23c0-.4.1-.6.3-.7.1-.1.3-.3.7-.3s.7.1,1.1.4c.3.2.3.4.3.6v23c0,10.2,7.5,18.5,17.5,19.2h1.7c0,.1,0-1.6,0-1.6v-3.2l-1.4-.2c-7.3-.8-12.8-7-12.8-14.3v-1.8s0-21.2,0-21.2c0-1.8-.8-3.3-2.2-4.5-1.2-1-2.6-1.5-4.1-1.5h0Z"/>
  <path class="st0" d="M76.5,46c2.3,0,4.1,1.8,4.1,4.1s-1.8,4.1-4.1,4.1-4.1-1.8-4.1-4.1,1.8-4.1,4.1-4.1M76.5,44.4c-3.1,0-5.7,2.5-5.7,5.7s2.5,5.7,5.7,5.7,5.7-2.5,5.7-5.7-2.5-5.7-5.7-5.7h0Z"/>
  <path class="st0" d="M97.7,24.3c1.2,0,2.3.4,3.1,1.2.8.8,1.3,1.9,1.3,3.1v23c0,12.9-9.7,23.5-22.2,24.8-.2,0-.4,0-.6,0v-1.8c0,0,.2,0,.3,0,0,0,0,0,0,0,0,0,.2,0,.3,0,0,0,.2,0,.2,0,0,0,.1,0,.2,0,11.3-1.6,20-11.2,20-23h0s0,0,0,0v-23c0-.7-.3-1.4-.7-1.8-.5-.5-1.1-.7-1.9-.7s-1.4.2-2,.7c-.6.5-.9,1.1-.9,1.8v23c0,8.9-6.2,16.6-15.4,17.6v-1.8c7.8-1.2,13.6-7.8,13.6-15.8v-1.8s0-21.2,0-21.2c0-1.3.5-2.4,1.6-3.2.9-.7,2-1.1,3.1-1.1M97.7,22.7c-1.5,0-2.9.5-4.1,1.4-1.4,1.1-2.2,2.7-2.2,4.5v22.9c0,7.2-5.2,13.2-12.3,14.2l-1.4.2v4.9l1.8-.2c9.8-1,16.9-9.1,16.9-19.2v-23c0-.2,0-.4.3-.6.3-.3.7-.4,1.1-.4s.6.1.7.3c.1.1.3.3.3.7v23.4c-.2,10.6-8.1,19.6-18.6,21h0s0,0,0,0h0s-.5,0-.5,0h-.2s-.1,0-.1,0l-1.4.2v4.9h1.7c0-.1.6-.2.6-.2,13.5-1.5,23.6-12.9,23.6-26.4v-1.8s0-21.2,0-21.2c0-1.6-.6-3.1-1.7-4.2-1.1-1.1-2.6-1.7-4.2-1.7h0Z"/>
  <path class="st0" d="M54.8,24.3c1.1,0,2.2.4,3.1,1.1,1,.8,1.6,1.9,1.6,3.2v23c0,8.2,6.2,14.9,14.3,15.8v1.8c-9.5-.7-16-8.5-16-17.6v-23c0-.7-.3-1.4-.9-1.8-.6-.5-1.3-.7-2-.7s-1.4.2-1.9.7c-.5.5-.7,1.1-.7,1.8v23h0c0,11.8,8.7,21.4,20,23,0,0,.1,0,.2,0,0,0,.2,0,.2,0,0,0,.2,0,.3,0,0,0,0,0,0,0,.3,0,.6,0,.9.1v1.7c-.3,0-.7,0-1.2-.1-12.5-1.4-22.2-12-22.2-24.8v-1.8s0-21.2,0-21.2c0-1.2.4-2.3,1.3-3.1.8-.8,1.9-1.2,3.1-1.2M54.8,22.7c-1.6,0-3.1.6-4.2,1.7-1.1,1.1-1.7,2.6-1.7,4.2v23c0,13.6,10.2,24.9,23.6,26.4.5,0,.9,0,1.2.1h1.7c0,.1,0-1.6,0-1.6v-3.2l-1.4-.2c-.3,0-.6,0-.9,0h-.3s0,0,0,0h0s-.2,0-.2,0h0s0,0,0,0h0c-10.5-1.5-18.5-10.5-18.6-21.1v-.4s0-23,0-23c0-.4.1-.6.3-.7.1-.1.3-.3.7-.3s.7.1,1.1.4c.3.2.3.4.3.6v23c0,10.2,7.5,18.5,17.5,19.2h1.7c0,.1,0-1.6,0-1.6v-3.2l-1.4-.2c-7.3-.8-12.8-7-12.8-14.3v-1.8s0-21.2,0-21.2c0-1.8-.8-3.3-2.2-4.5-1.2-1-2.6-1.5-4.1-1.5h0Z"/>
</svg>